<svg version="1.1" id="Layer_1" xmlns="http://www.w3.org/2000/svg" xmlns:xlink="http://www.w3.org/1999/xlink" x="0px" y="0px" viewBox="0 0 27 27" width="27px" xml:space="preserve" aria-hidden="true">
<circle fill="#CED3D8" cx="13.4" cy="13.5" r="12.7"></circle>
<g>
  <g>
  <path fill="#B69A7D" d="M13.4,26.5c-3.5,0-6.8-1.4-9.2-3.8S0.3,17,0.3,13.5s1.4-6.8,3.8-9.2s5.7-3.8,9.2-3.8s6.8,1.4,9.2,3.8
  s3.8,5.7,3.8,9.2s-1.4,6.8-3.8,9.2S16.9,26.5,13.4,26.5z M13.4,1.1C6.6,1.1,1,6.7,1,13.5s5.5,12.4,12.4,12.4s12.4-5.5,12.4-12.4
  C25.7,6.7,20.2,1.1,13.4,1.1z"></path>
  <path d="M13.4,0.5c3.5,0,6.7,1.3,9.2,3.8s3.8,5.7,3.8,9.2s-1.3,6.7-3.8,9.2s-5.7,3.8-9.2,3.8s-6.7-1.3-9.2-3.8S0.4,17,0.4,13.5
  s1.3-6.7,3.8-9.2C6.6,1.8,9.9,0.5,13.4,0.5 M13.4,25.9c6.9,0,12.4-5.6,12.4-12.4S20.2,1,13.4,1S0.9,6.6,0.9,13.5
  S6.5,25.9,13.4,25.9 M13.4,0.3c-3.5,0-6.8,1.4-9.3,3.8S0.2,10,0.2,13.5s1.4,6.8,3.8,9.3s5.8,3.8,9.3,3.8s6.8-1.4,9.3-3.8
  s3.8-5.8,3.8-9.3S25,6.7,22.6,4.2S16.9,0.3,13.4,0.3L13.4,0.3z M13.4,25.8c-6.8,0-12.3-5.5-12.3-12.3S6.6,1.2,13.4,1.2
  s12.3,5.5,12.3,12.3C25.6,20.2,20.1,25.8,13.4,25.8L13.4,25.8z"></path>
  </g>
</g>
<g id="Inner_circle">
  <circle fill="#B69A7D" stroke="#000000" stroke-width="0.15" cx="13.4" cy="13.5" r="9.9"></circle>
</g>
<path fill="#FFFFFC" stroke="#000000" stroke-width="0.2" d="M15.6,21.7c1-0.2,2.5-0.5,3.5-1.4c0.2-0.1,0.8-0.6,1.1-1
c0.2-0.2,0.2-0.3,0.4-0.7c0.1-0.2,0.1-0.6,0.1-0.6V6.6H6v11.5c0,0,0,0.4,0.1,0.6c0.2,0.3,0.2,0.5,0.4,0.7c0.3,0.4,0.9,0.9,1.1,1
c1.1,0.8,2.5,1.1,3.5,1.4c0.4,0.1,0.8,0.3,1.1,0.4c0.4,0.2,1,0.4,1.2,0.7l0,0C13.4,22.8,13.9,22.1,15.6,21.7z"></path>
<rect x="13.4" y="11.7" fill="#D15A4D" width="7.2" height="1.5"></rect>
<path fill="#D15A4D" stroke="#000000" stroke-width="0.1" d="M20.1,16.6c0.3,0.2,0.4-0.1,0.5-0.3c-0.2,0.1-0.3-0.4-0.5-0.4
c-0.3-0.1-0.5,0.3-0.6,0.5c-0.1-0.1-0.1-0.2-0.1-0.3l0.1-0.1c0-0.1,0-0.1,0-0.2c0-0.2,0.2-0.3,0.4-0.3c0-0.1-0.2-0.9-0.9-0.7
c-0.1,0.1,0,0.3,0,0.4c0,0-0.2,0-0.3,0c-0.3,0-0.5,0-0.4,0.3c0,0-0.4-0.1-0.4,0c0.1,0.2,0.4,0.2,0.5,0.2c0,0,0,0.2,0.2,0.2
c0,0.1-0.3,0.2-0.4,0.2c-0.2,0.1-0.3,0.1-0.4-0.1c-0.1-0.2,0-0.3-0.1-0.5c0-0.1-0.1-0.2-0.2-0.2c-0.2,0-0.3,0.2-0.3,0.4
c0,0.3,0.3,0.5,0.5,0.7c0.1,0.1,0.1,0.2,0,0.2c-0.1,0.1-0.4-0.1-0.4-0.3c0-0.1-0.4,0.5-0.2,0.7c0.1,0.1,0.2,0.1,0.3,0.1
c0.3,0.1,0.5,0,0.7,0s0.2,0.1,0.3,0.2c0.1,0.1,0.3,0.1,0.3,0.2c-0.1,0.1-0.2,0-0.3,0.1c-0.1,0-0.2,0.1-0.3,0.2
c-0.1,0.1-0.2,0.1-0.3,0.2l-0.1,0.1c0,0.1,0.4,0.3,0.5,0.3c0,0.1-0.4,0.1-0.4,0.3c0.3,0,0.6,0.1,0.8-0.1c0.3-0.2,0.3-0.3,0.7-0.3
c0,0.2-0.4,0.2-0.4,0.4c0.4,0,0.7,0.1,1-0.2c0.1-0.1,0.2-0.3,0.1-0.4S19.8,18,19.7,18c0-0.2,0.3-0.4,0.4-0.4
c0.3-0.1,0.3-0.4,0.2-0.7c-0.1-0.3-0.4-0.5-0.4-0.8c0-0.1,0.1-0.3,0.2-0.2C20.1,16.2,19.9,16.5,20.1,16.6z M19.9,17.4
c0,0.2-0.6,0-0.7-0.1s-0.1-0.2-0.1-0.3l0.2-0.5c0.2,0,0.2,0.2,0.3,0.4C19.7,17.1,19.9,17.2,19.9,17.4z"></path>
<g>
  <path fill="#E9D976" d="M8.9,20c-0.4,0-0.5,0-0.5-0.1s0.1-0.2,0.4-0.3c0.1,0,0.2-0.1,0.2-0.1c0.1-0.1,0.1-0.3,0-0.5
  s-0.3-0.4-0.5-0.4l0,0H8.4c-0.1,0-0.1,0-0.2,0c-0.1,0-0.1,0-0.2-0.1c0,0-0.1-0.2-0.1-0.5c0-0.1,0-0.2,0-0.2
  c-0.1-0.6-0.2-1.1-0.1-1.7c0.1-0.5,0.4-1.3,0.9-1.3l0,0c0.1,0,0.2,0.1,0.4,0.2c0.1,0.1,0.3,0.2,0.4,0.2l0,0c0,0,0.1,0,0.2-0.2
  c0-0.4,0-0.6,0.2-0.9c0.1-0.1,0.3-0.5,0.6-0.5c0.1,0,0.1,0,0.1,0.1C11.1,14,11,14.6,11,15c0,0.1,0,0.2,0,0.3c0.1,0,0.2-0.1,0.2-0.2
  c0.1-0.1,0.2-0.3,0.4-0.3c0,0,0.1,0,0.2,0c0.4,0.1,0.6,0.6,0.7,1c0.1,0.5,0,1-0.1,1.5c0,0.1,0,0.2-0.1,0.4c0,0.2-0.1,0.5-0.1,0.7
  c-0.1,0.3-0.4,0.3-0.7,0.4c-0.4,0.1-0.7,0.1-0.8,0.5l0.1,0.1c0.2,0.2,0.3,0.3,0.3,0.4c0,0,0,0.1-0.8,0.1C9.9,20,9.3,20,8.9,20
  L8.9,20z"></path>
  <path d="M10.4,13.8h0.1c0.7,0.3,0.3,1.1,0.4,1.6c0.3,0,0.3-0.5,0.7-0.5h0.1c0.4,0.1,0.5,0.6,0.6,1c0.1,0.5,0,1-0.1,1.5
  c-0.1,0.3-0.1,0.7-0.2,1.1c-0.2,0.5-1.5,0.1-1.5,1c0,0.1,0.4,0.4,0.4,0.5c0,0-1.3,0.1-2,0.1c-0.3,0-0.4,0-0.4-0.1s0.6-0.3,0.7-0.4
  c0.3-0.4-0.2-1-0.6-1l0,0c-0.1,0-0.2,0.1-0.3,0.1c0,0-0.1,0-0.1-0.1C8,18.4,8,18,8,17.8c-0.1-0.5-0.2-1.1-0.1-1.7
  c0.1-0.4,0.3-1.2,0.9-1.3l0,0c0.2,0,0.5,0.5,0.8,0.5c0.1,0,0.2-0.1,0.2-0.2c0-0.3,0-0.6,0.2-0.8C9.9,14.2,10.2,13.8,10.4,13.8
  M10.4,13.7c-0.3,0-0.6,0.4-0.6,0.5c-0.1,0.2-0.2,0.5-0.2,0.9c0,0.1-0.1,0.1-0.1,0.1c-0.1,0-0.2-0.1-0.4-0.2
  c-0.2-0.1-0.3-0.2-0.4-0.2l0,0c-0.6,0.1-0.9,0.9-1,1.4c-0.1,0.5,0,1.1,0.1,1.7c0,0,0,0.1,0,0.2c0,0.3,0,0.5,0.1,0.6
  s0.1,0.1,0.2,0.1c0.1,0,0.1,0,0.2,0h0.1l0,0c0.2,0,0.4,0.2,0.5,0.4c0.1,0.2,0.1,0.3,0,0.4c0,0-0.2,0.1-0.3,0.2
  c-0.3,0.1-0.4,0.2-0.4,0.3c0,0.1,0.1,0.1,0.5,0.1s1,0,1.3-0.1c0.2,0,0.4,0,0.5,0s0.1,0,0.2,0c0.1,0,0.1,0,0.1-0.1s-0.1-0.2-0.3-0.4
  l-0.1-0.1c0-0.3,0.3-0.4,0.7-0.5c0.3-0.1,0.7-0.1,0.8-0.4c0.1-0.2,0.1-0.4,0.1-0.7c0-0.1,0-0.3,0.1-0.4c0.1-0.5,0.2-1,0.1-1.5
  c-0.1-0.3-0.2-0.9-0.7-1.1c-0.1,0-0.1,0-0.2,0c-0.2,0-0.3,0.2-0.4,0.3c0,0.1-0.1,0.1-0.1,0.2c0-0.1,0-0.2,0-0.3
  c0.1-0.5,0.1-1-0.4-1.3C10.5,13.7,10.5,13.7,10.4,13.7L10.4,13.7L10.4,13.7z"></path>
</g>
<path fill="#D15A4D" d="M13.4,22.7c0.3-0.3,0.8-0.5,1.2-0.7c0.2-0.1,0.7-0.3,1.1-0.4c0.3-0.1,0.4-0.1,1-0.2v-8.2h-3.3L13.4,22.7
L13.4,22.7z"></path>
<line fill="none" stroke="#000000" stroke-width="0.2" stroke-linejoin="round" x1="6" y1="13.2" x2="20.7" y2="13.2"></line>
<g>
  <path fill="#AF957C" d="M15.6,19c-0.3,0-0.4-0.1-0.4-0.5v-0.1c0-0.2,0-0.4-0.1-0.5c0,0,0,0-0.1,0c0,0,0,0-0.1,0
  c-0.2,0.1-0.1,0.6-0.1,0.9c0,0.1,0,0.1,0,0.2l0,0h-0.1c-0.1,0-0.3,0-0.5,0c-0.1,0-0.2,0-0.3,0s-0.2,0-0.3,0l0,0l0,0
  c0-0.1,0-0.1,0-0.2c0-0.2-0.1-0.4,0-0.6c0-0.1,0.1-0.1,0.2-0.2c0.1,0,0.1-0.1,0.2-0.2c0.2-0.5,0-1.2-0.1-1.7c0-0.1,0-0.1,0-0.2l0,0
  l0,0c0-0.2,0-0.7,0.1-0.9l0,0l0,0c0.1,0,0.1,0,0.2,0c0.1,0,0.1,0,0.2,0h0.1v0.1c0,0.2,0,0.3,0,0.5c0,0,0.1,0,0.1-0.1
  c0.1-0.1,0.1-0.4,0.1-0.7l0,0l0,0c0-0.1,0.2-0.1,0.3-0.1s0.2,0,0.3,0.1c0,0,0,0,0,0.1c0,0.4,0,0.6,0.1,0.7l0,0
  c0.1-0.1,0.1-0.4,0.1-0.5l0,0l0,0h0.1c0.1,0,0.1,0,0.2,0.1c0.1,0.1,0.2,0.4,0.2,0.9l0,0l0,0c-0.1,0-0.2,0.1-0.2,0.3
  c0,0.2,0,0.4,0,0.6s0,0.5,0,0.7c0.3,0.2,0.4,0.8,0.4,1.2l0,0v0.2l0,0l0,0c-0.1,0-0.2,0-0.3,0C15.8,19,15.7,19,15.6,19L15.6,19z"></path>
  <path d="M15,14.6c0.1,0,0.2,0,0.3,0l0,0c0,0,0,0.6,0.1,0.8l0,0c0.2,0,0.2-0.6,0.2-0.6s0,0,0.1,0s0.4,0.1,0.4,0.9l0,0
  c-0.2,0-0.2,0.2-0.2,0.4c0,0.4-0.1,0.9,0,1.3c0.4,0.2,0.3,1.1,0.3,1.2v0.2c-0.2,0-0.4,0-0.5,0c-0.2,0-0.3-0.1-0.3-0.5
  c0-0.2,0.1-0.7-0.2-0.7c0,0,0,0-0.1,0c-0.3,0.1-0.1,0.9-0.1,1.1c-0.2,0-0.3,0-0.5,0s-0.4,0-0.6,0c0-0.2-0.1-0.6,0-0.8
  c0.1-0.2,0.3-0.2,0.4-0.4c0.3-0.5,0-1.4-0.2-2l0,0c0-0.3,0-0.6,0.1-0.9c0.1,0,0.2,0,0.3,0c0,0.2,0,0.4,0.1,0.6
  c0.4,0,0.2-0.8,0.2-0.8C14.8,14.6,14.9,14.6,15,14.6 M15,14.5c-0.2,0-0.3,0-0.4,0.2l0,0l0,0c0,0.3,0,0.6,0,0.6l0,0
  c0-0.1,0-0.3,0-0.4v-0.1h-0.1c-0.1,0-0.1,0-0.2,0c-0.1,0-0.1,0-0.2,0H14v0.1c0,0.3,0,0.7,0,0.9v0.1l0,0V16c0.1,0.5,0.3,1.3,0.1,1.7
  c0,0.1-0.1,0.1-0.2,0.2s-0.1,0.1-0.2,0.2c-0.1,0.1,0,0.4,0,0.6c0,0.1,0,0.2,0,0.2V19h0.1c0.1,0,0.2,0,0.3,0s0.2,0,0.3,0
  c0.2,0,0.3,0,0.4,0h0.1v-0.1c0,0,0-0.1,0-0.2c0-0.2,0-0.4,0-0.6c0-0.3,0.1-0.3,0.1-0.3l0,0l0,0c0.1,0.1,0.1,0.3,0,0.5
  c0,0.1,0,0.1,0,0.1c0,0.4,0.1,0.6,0.4,0.6c0.1,0,0.1,0,0.2,0c0.1,0,0.2,0,0.3,0H16l0,0c0-0.1,0-0.2,0-0.2l0,0l0,0
  c0-0.5,0-1-0.4-1.2c0-0.2,0-0.5,0-0.7s0-0.4,0-0.6s0-0.3,0.1-0.3l0,0h0.1v-0.1c0-0.4-0.1-0.8-0.2-0.9c-0.1-0.1-0.2-0.1-0.3-0.1l0,0
  c-0.1,0-0.1,0-0.1,0h-0.1V15c0,0.1,0,0.3-0.1,0.4c0-0.1-0.1-0.3,0-0.7L15,14.5C15.3,14.6,15.3,14.5,15,14.5L15,14.5z"></path>
</g>
<rect x="6.7" y="8.7" fill="#D35E57" width="0.6" height="4.4"></rect>
<rect x="7.8" y="8.7" fill="#D35E57" width="0.6" height="4.4"></rect>
<rect x="8.9" y="8.7" fill="#D35E57" width="0.5" height="4.4"></rect>
<rect x="10" y="8.7" fill="#D35E57" width="0.5" height="4.4"></rect>
<rect x="11.1" y="8.7" fill="#D35E57" width="0.5" height="4.4"></rect>
<rect x="12.2" y="8.7" fill="#D35E57" width="0.5" height="4.4"></rect>
<polygon fill="#334B69" points="13.4,8.7 13.4,6.6 6.1,6.6 6.1,8.7 "></polygon>
<line fill="none" stroke="#000000" stroke-width="0.2" stroke-linejoin="round" x1="13.3" y1="6.6" x2="13.3" y2="22.8"></line>
<g>
  <path fill="#31968F" d="M4.1,14.1c0,0-0.2-1.1-0.1-1.6c0-0.3,0.2-0.6,0.3-0.8c0.1-0.1,0.1-0.3,0.2-0.4c0-0.2,0.1-0.3,0.1-0.5
  c0.1-0.6,0.3-1.2,0.8-1.5l0,0l0,0c0.1,0.2-0.1,0.5-0.2,0.6C5.2,10,5.1,10,5.1,10c-0.2,0.3-0.3,0.5-0.2,0.8c0,0.3,0.2,0.6,0.3,0.9
  c0.2,0.4,0.4,0.8,0.3,1.3v0.1L5.4,13c-0.4-0.5-0.6-1-0.7-1.6v0.1c0,0.2,0.1,0.3,0.1,0.4c0.1,0.3,0.2,0.5,0,0.9l0,0l0,0
  c-0.1,0-0.1,0-0.2-0.1c-0.2-0.2-0.1-0.6-0.1-0.9c-0.1,0.2-0.1,0.3-0.1,0.5c0,0.1,0,0.2,0,0.4s0.1,0.5,0,0.7
  C4.4,13.5,4.2,14.1,4.1,14.1v0.1V14.1z"></path>
  <path d="M5.4,9.3C5.5,9.5,5.1,9.9,5,10c-0.2,0.3-0.3,0.5-0.2,0.9c0.1,0.8,0.7,1.3,0.6,2.2c-0.4-0.6-0.6-1.2-0.8-1.8
  c0,0.1,0,0.2,0,0.3l0,0c0.1,0.5,0.4,0.7,0.1,1.3c-0.4,0-0.2-1-0.2-1.2c-0.1,0.3-0.2,0.5-0.2,0.8s0.2,0.7,0,1c0,0.1-0.2,0.7-0.3,0.7
  c0,0-0.2-1.1-0.1-1.6c0.1-0.4,0.3-0.8,0.4-1.2C4.7,10.6,4.7,9.7,5.4,9.3 M5.4,9.2L5.4,9.2c-0.6,0.4-0.8,1-0.9,1.6
  c0,0.2-0.1,0.3-0.1,0.5c0,0.1-0.1,0.3-0.2,0.4C4.1,11.9,4,12.2,4,12.5C3.9,13,4,14,4,14.1v0.3l0.1-0.2c0,0,0.2-0.6,0.3-0.7
  c0.1-0.2,0.1-0.4,0-0.7l0,0c0.1,0.1,0.1,0.1,0.2,0.1h0.1v-0.1c0.1-0.2,0.1-0.4,0.1-0.5c0.1,0.3,0.2,0.5,0.4,0.8l0.1,0.2V13
  c0-0.5-0.1-0.9-0.3-1.3c-0.1-0.3-0.3-0.6-0.3-0.9c0-0.3,0.1-0.5,0.2-0.8L5,9.9C5.4,9.8,5.6,9.5,5.4,9.2L5.4,9.2L5.4,9.2z"></path>
</g>
<g>
  <path fill="#299790" d="M10.4,19.6c0,0-0.1,0-0.2,0c-0.1,0-0.5-0.2-0.9-0.4c-0.1-0.1-0.2-0.1-0.3-0.1s-0.1,0.1-0.2,0.2
  c0,0.1-0.1,0.3-0.3,0.3H8.4c-0.1,0-0.1,0-0.1,0c0-0.1,0-0.1,0-0.2s0-0.2,0-0.2s0,0-0.1,0s-0.2,0-0.3,0c-0.1,0-0.2,0-0.3,0
  c0,0-0.2,0-0.2-0.1s0-0.2,0.1-0.3c0.1-0.1,0.2-0.2,0.4-0.3l0,0l0,0c0.2,0,0.4-0.3,0.5-0.6c0.1-0.3,0.3-0.6,0.5-0.7
  c0.1-0.1,0.3-0.3,0.5-0.4s0.4-0.3,0.5-0.4c0.3-0.3,0.8-1.1,0.8-1.7c0-0.2-0.1-0.4-0.3-0.6C10.3,14,9.7,14,9.2,14
  c-0.3,0-0.5,0-0.6,0H8.4l0.2-0.1c0.3-0.1,0.7-0.2,1.2-0.2c0.2,0,0.4,0,0.6,0.1c0.5,0.2,0.8,0.5,0.9,0.9c0.2,0.7-0.4,1.7-0.9,2.2
  c-0.1,0.1-0.2,0.2-0.3,0.3c-0.4,0.3-1,0.7-1,1.1c0,0.2,0,0.3,0.1,0.3s0.2-0.1,0.4-0.2s0.3-0.3,0.5-0.3l0,0c0.2,0,0.2,0.1,0.2,0.2
  s0,0.1,0.1,0.1c0,0,0,0,0.1,0s0.2-0.1,0.4-0.1c0.3,0,0.6,0.1,0.8,0.3c0.1,0,0.2,0,0.3,0.1c0.2,0,0.5,0.1,0.6,0.2s0.1,0.2,0,0.3
  c-0.1,0.2-0.4,0.3-0.5,0.3l0,0l0,0c-0.1,0-0.1-0.1-0.2-0.2c0-0.1-0.1-0.1-0.1-0.1h-0.1c-0.1,0-0.1,0-0.2,0c-0.1,0-0.2,0-0.4,0.1
  c-0.1,0-0.1,0.1-0.1,0.2C10.6,19.5,10.6,19.6,10.4,19.6z"></path>
  <path d="M9.8,13.6c0.2,0,0.4,0,0.6,0.1c1.5,0.5,0.8,2.2-0.1,3C10,17,9,17.5,9,18c0,0.2,0.1,0.3,0.2,0.3c0.2,0,0.6-0.5,0.8-0.5l0,0
  c0.2,0,0.2,0.3,0.3,0.3l0,0c0,0,0.2-0.1,0.5-0.1c0.2,0,0.5,0.1,0.7,0.3c0.2,0.1,0.7,0.1,0.8,0.3c0.2,0.3-0.2,0.5-0.4,0.5l0,0
  c-0.1,0-0.2-0.3-0.3-0.3s-0.2,0-0.3,0s-0.2,0-0.4,0.1s-0.2,0.5-0.4,0.5h-0.1C10.1,19.5,9,19,9,19l0,0c-0.3,0-0.2,0.4-0.5,0.5H8.4
  c-0.3,0,0.1-0.3-0.2-0.4H8.1c-0.1,0-0.4,0.1-0.5,0.1c-0.2,0-0.3-0.1-0.1-0.3c0.1-0.1,0.2-0.2,0.4-0.3c0.4-0.1,0.6-1,1.1-1.3
  c0.3-0.3,0.8-0.5,1-0.8c0.5-0.5,1.2-1.8,0.5-2.3C10.2,13.9,9,14,8.6,13.9C8.9,13.8,9.3,13.6,9.8,13.6 M9.8,13.5L9.8,13.5L9.8,13.5
  c-0.4,0-0.9,0.1-1.2,0.2l0,0l-0.3,0.1L8.6,14c0.1,0,0.4,0,0.6,0c0.5,0,1.1,0,1.3,0.2c0.2,0.1,0.2,0.3,0.3,0.5
  c0,0.6-0.4,1.3-0.7,1.7c-0.1,0.1-0.3,0.3-0.5,0.4C9.3,16.9,9.1,17,9,17.2c-0.2,0.2-0.4,0.5-0.5,0.7c-0.2,0.3-0.3,0.5-0.5,0.6l0,0
  l0,0c-0.2,0.1-0.4,0.2-0.5,0.3c-0.1,0.1-0.1,0.3-0.1,0.4c0.1,0.1,0.2,0.1,0.3,0.1c0.1,0,0.2,0,0.3,0c0.1,0,0.2,0,0.2,0h0.1
  c0,0,0,0,0,0.1s0,0.2,0,0.2s0.1,0.1,0.2,0.1h0.1c0.2,0,0.3-0.2,0.3-0.3c0-0.1,0.1-0.2,0.1-0.2s0.1,0.1,0.2,0.1
  c0.4,0.2,0.8,0.4,0.9,0.4c0.1,0,0.1,0,0.2,0c0.2,0,0.3-0.2,0.4-0.3c0-0.1,0.1-0.2,0.1-0.2c0.2-0.1,0.3-0.1,0.4-0.1
  c0.1,0,0.1,0,0.2,0h0.1l0.1,0.1c0.1,0.1,0.1,0.2,0.2,0.2l0,0c0.1,0,0.4-0.2,0.5-0.4c0-0.1,0-0.2,0-0.3c-0.1-0.2-0.4-0.2-0.6-0.2
  c-0.1,0-0.2,0-0.3-0.1c-0.2-0.2-0.5-0.3-0.8-0.3c-0.2,0-0.3,0-0.4,0.1l0,0v-0.1c0-0.1-0.1-0.3-0.3-0.3l0,0c-0.2,0-0.3,0.2-0.5,0.3
  c-0.1,0.1-0.3,0.2-0.3,0.2C9,18.3,9,18.2,9,18c0-0.4,0.5-0.7,0.9-1c0.1-0.1,0.3-0.2,0.4-0.3c0.6-0.5,1.1-1.5,1-2.2
  c-0.1-0.4-0.4-0.8-0.9-0.9C10.2,13.6,10,13.5,9.8,13.5L9.8,13.5z"></path>
</g>
<g id="Text">
  <path d="M6.7,22.2c-0.1,0.1,0,0.2,0.1,0.2L7,22.3c0.1,0-0.1,0.3-0.2,0.4s0-0.2-0.1-0.3c-0.1-0.1-0.2,0-0.2,0.1l-0.1,0.1
  c0,0,0,0.1-0.1,0.1c0,0.1,0,0.1,0,0.1s0.1,0.1,0,0.1c0,0-0.2-0.2-0.3-0.2c-0.1-0.1-0.3-0.1-0.2-0.2c0,0,0.1,0,0.2,0l0.1-0.1
  c0.1-0.2,0.3-0.4,0.4-0.5c0.1-0.2,0-0.1,0-0.2c0,0-0.1,0,0-0.1L7,22c0.1,0.1,0.3,0.2,0.1,0.3C7,22.4,7,22.3,7,22.2
  C7.1,22,7,21.9,6.9,22C6.8,22,6.7,22.1,6.7,22.2z"></path>
  <path d="M7.8,23.8c-0.5-0.3,0.2-1.4,0.6-1.1C8.6,23,8.2,24,7.8,23.8z M7.7,23.9c0.7,0.4,1.4-0.6,0.7-1.1
  C7.7,22.1,6.9,23.4,7.7,23.9z"></path>
  <path d="M10.1,24.3c-0.1,0.3-0.2,0.4-0.5,0.3c-0.2,0-0.5-0.2-0.5-0.5c0-0.2,0.2-0.5,0.2-0.7v-0.1c0,0,0-0.1-0.1-0.1
  c0,0-0.1-0.1,0-0.1s0.6,0.2,0.6,0.2c0,0.1-0.1,0-0.1,0c-0.1,0.1-0.1,0.1-0.1,0.2s-0.1,0.2-0.1,0.4c-0.1,0.1-0.2,0.3-0.1,0.5
  c0.1,0.2,0.4,0.2,0.5,0.1s0.1-0.3,0.2-0.4c0-0.1,0.2-0.3,0.1-0.4c0-0.1-0.2-0.2,0-0.1l0.3,0.1c0,0.1-0.1,0-0.1,0
  C10.2,23.8,10.1,24.1,10.1,24.3z"></path>
  <path d="M11.8,24.2c0-0.2-0.3-0.3,0.1-0.3c0.1,0,0.3,0,0.2,0.1c0,0-0.1,0-0.2,0.1c-0.1,0.1-0.1,0.3-0.1,0.4c0,0.2-0.1,0.4-0.1,0.6
  c0,0.1,0,0.3-0.2,0.1c-0.1-0.1-0.1-0.2-0.1-0.3c-0.1-0.3-0.3-0.6-0.4-0.8c0,0.2-0.1,0.4-0.1,0.5s0,0.1,0,0.2s0,0.1,0,0.2
  c0,0,0.1,0,0.1,0.1s-0.4,0-0.4,0C10.5,25,10.7,25,10.7,25c0.1-0.1,0.1-0.5,0.1-0.6s0-0.2,0-0.3V24l-0.1-0.1c0-0.1,0.3-0.1,0.4,0
  c0.1,0.1,0.2,0.3,0.2,0.4c0.1,0.2,0.2,0.3,0.2,0.5L11.8,24.2z"></path>
  <path d="M13,24.2c0-0.3,0.4-0.1,0.5,0.1c0.1,0.3,0.1,0.9-0.3,0.9C12.8,25.2,13,24.4,13,24.2z M12.6,25c0,0.1,0,0.1-0.1,0.2
  c0,0-0.1,0,0,0.1c0.1,0,0.5,0,0.6,0s0.2,0,0.4-0.1c0.6-0.3,0.4-1.1-0.2-1.2c-0.2,0-0.4,0-0.6,0c0,0-0.2,0-0.2,0.1s0.1,0,0.2,0.1
  c0.1,0.1,0,0.3,0,0.4C12.6,24.7,12.6,24.8,12.6,25z"></path>
  <path d="M14.8,24.3c0,0.1,0.2,0.1,0.3,0c0,0,0-0.2,0.1-0.2s0.1,0.1,0.1,0.2s0.1,0.3,0,0.3s-0.1-0.2-0.3-0.1s0,0.6,0.2,0.5
  c0.1,0,0.1,0,0.2-0.1l0.1-0.2c0.1-0.1,0.1,0.1,0.1,0.2c0,0.2,0,0.1-0.2,0.2c-0.2,0-0.5,0.1-0.7,0.1c-0.3,0-0.1,0,0-0.1
  c0-0.1,0-0.2,0-0.3c0-0.2,0-0.4-0.1-0.6c0-0.1,0-0.1-0.1-0.2h-0.1c0-0.1,0.4-0.1,0.5-0.1s0.3-0.1,0.4-0.1c0.1,0,0.1,0,0.1,0.1
  c0,0,0,0.1,0,0.2c-0.1,0.1-0.1,0-0.1,0c-0.1,0-0.3-0.2-0.4,0C14.7,24.1,14.8,24.3,14.8,24.3z"></path>
  <path d="M16.2,23.8c-0.1-0.4,0.4-0.2,0.5,0c0.2,0.2,0.3,0.9-0.1,0.9C16.4,24.7,16.3,24,16.2,23.8z M16.1,24.6
  c0.1,0.2-0.2,0.3,0.1,0.3c0.3-0.1,0.6-0.1,0.8-0.3c0.4-0.5,0-1.2-0.6-1.1c-0.2,0-0.4,0.1-0.6,0.2c-0.3,0.2,0,0.1,0.1,0.2
  s0.1,0.3,0.1,0.4C16.1,24.4,16.1,24.5,16.1,24.6z"></path>
  <path d="M19.3,23.3l0.1,0.1h0.1c0.1,0.1,0.1,0.1-0.1,0.1c-0.1,0.1-0.3,0.2-0.4,0.2s-0.1,0.1-0.1-0.1c0-0.1,0.1,0,0.1-0.2
  c0-0.1-0.1-0.1-0.1-0.2c-0.1-0.1-0.1-0.3-0.3-0.4c-0.1-0.1,0-0.1-0.2,0l-0.1,0.1c-0.1-0.1,0.2-0.3,0.2-0.3c0.1-0.1,0.1-0.2,0.2-0.1
  s0.2,0.3,0.2,0.4C19.1,23,19.2,23.2,19.3,23.3z"></path>
  <path d="M20.2,22.1c-0.1-0.3-0.2-0.1-0.4,0l-0.2,0.2l-0.2-0.2c0-0.1,0.3-0.3,0.4-0.3s0.2-0.2,0.3-0.2c0.1,0,0.1,0,0.1,0.1
  c0.1,0.2,0.1,0.5,0.2,0.7c0,0.2,0.1,0.3,0.1,0.5c0,0.3-0.1,0.1-0.1-0.1C20.3,22.5,20.3,22.3,20.2,22.1z"></path>
  <path d="M21.7,21.7c-0.2,0.2-0.6-0.1-0.4-0.3C21.4,21.2,21.9,21.5,21.7,21.7z M21.7,21.8c0.2-0.2,0.2-0.4,0.1-0.6
  c-0.1-0.1-0.2-0.1-0.3-0.2c0,0-0.2,0.1-0.2,0v-0.2c0-0.1-0.1-0.1-0.1-0.2c-0.2-0.1-0.4,0-0.5,0.2c-0.1,0.1-0.2,0.3-0.1,0.5
  c0,0.1,0.1,0.1,0.2,0.2H21c0,0-0.1,0.2,0,0.3c0,0.1,0.1,0.1,0.2,0.2C21.4,22,21.6,21.9,21.7,21.8z M21.2,21.1
  c-0.1,0.1-0.6,0.1-0.4-0.2C20.9,20.7,21.3,21,21.2,21.1z"></path>
  <path d="M22.6,20.3c0.1,0.1,0.1,0,0.2,0s0.1,0,0,0.1s-0.2,0.2-0.3,0.3c-0.1,0.1-0.1,0.1-0.1,0s0.1-0.1,0-0.2c0,0-0.1-0.1-0.2-0.1
  c-0.1-0.1-0.3-0.3-0.4-0.3c-0.1-0.1-0.1-0.1-0.2,0s0,0.2-0.1,0.1l0.1-0.4c0-0.1,0-0.1,0.1-0.1s0.3,0.2,0.4,0.3
  C22.3,20.1,22.5,20.2,22.6,20.3z"></path>
  <path d="M3.7,8.9c0.2,0.1,0,0.5-0.1,0.7C3.4,9.8,3.1,9.9,2.8,9.8C2.5,9.7,2.3,9.3,2.4,9c0-0.2,0.2-0.5,0.4-0.4
  C3,8.7,2.7,8.7,2.6,8.8C2.3,9.1,2.7,9.4,3,9.5c0.2,0.1,0.7,0.1,0.7-0.3C3.7,9.1,3.3,8.7,3.7,8.9z"></path>
  <path d="M4,8.1c0.2,0.1,0.4-0.2,0.2,0.2c0,0.1-0.1,0.3-0.2,0.3c-0.1,0,0-0.1,0-0.1C3.9,8.3,3.4,8.1,3.2,8L3.1,7.9C3.1,7.9,3,8,3,8
  C2.9,8,2.9,8,3,7.8c0-0.1,0.2-0.4,0.2-0.4c0.1,0,0,0.1,0,0.1C3.3,7.8,3.8,8,4,8.1z"></path>
  <path d="M4.7,7C4.9,7.2,5.1,6.9,5,7.2C4.9,7.3,4.7,7.6,4.6,7.5V7.3c0,0-0.1,0-0.1-0.1C4.4,7.2,4.3,7.1,4.2,7C4,6.9,3.7,6.6,3.7,7
  c0,0.2,0.1,0.3-0.1,0.1L3.5,7c0-0.1,0,0,0-0.1C3.7,6.7,3.9,6.5,4,6.3c0-0.1,0-0.2,0.1-0.2l0.2,0.2c0.1,0.2-0.2,0-0.3,0.1
  C3.9,6.5,4,6.5,4,6.6C4.3,6.8,4.5,6.9,4.7,7z"></path>
  <path d="M5.3,5.2c0-0.2-0.2,0-0.2-0.1c0,0,0.3-0.4,0.4-0.3V5c0,0.1,0,0.1,0,0.2s0,0.3,0.1,0.4c0,0.1,0.1,0.1,0.2,0.2
  c0,0,0.1,0.1,0.2,0.1s0.1,0,0.2,0S6,6.2,6,6.2S5.9,6.4,5.8,6.3s0-0.1,0-0.1C5.5,5.8,4.9,5.8,4.6,5.8c0,0-0.1,0.1-0.1,0
  C4.4,5.7,4.6,5.6,4.7,5.5s0.1-0.2,0.2-0.2c0.1-0.1,0,0,0.1,0.1v0.1h0.1c0.1,0,0.2,0,0.3,0.1C5.4,5.5,5.3,5.3,5.3,5.2z"></path>
  <path d="M7.8,4.5c-0.5,0.3-1.2-0.9-0.6-1C7.6,3.4,8.2,4.2,7.8,4.5z M7.8,4.6c0.7-0.4,0.1-1.5-0.6-1.2C6.3,3.8,7,5.1,7.8,4.6z"></path>
  <path d="M8.8,3.1c0,0.1,0.2,0.1,0.2,0V2.9c0.1,0,0.2,0.3,0.2,0.4C9.3,3.4,8.9,3,9,3.4c0,0.1,0.1,0.3,0.2,0.3h0.1
  c0,0.1-0.2,0.1-0.2,0.1c0,0.1-0.4,0.3-0.4,0.2l0.1-0.1c0-0.1,0-0.1-0.1-0.2c0-0.2-0.1-0.5-0.2-0.7c0-0.1,0-0.1-0.1-0.2
  c0,0-0.1,0.1-0.1,0s0.4-0.2,0.5-0.3c0.1,0,0.2-0.1,0.4,0.1c0,0,0.1,0.1,0.1,0.2c0,0.1-0.1,0-0.1,0c-0.1,0-0.2-0.1-0.3,0
  c-0.1,0-0.1,0-0.1,0.1C8.7,2.9,8.8,3,8.8,3.1z"></path>
  <path d="M10.8,2.2c0-0.1,0-0.1-0.1-0.2h-0.1c0-0.1,0.4-0.1,0.4-0.1c0.1,0,0.2-0.1,0.2,0c0,0-0.1,0-0.1,0.1v0.1
  c0,0.2,0.1,0.4,0.1,0.6c0,0.2,0.1,0.5,0.4,0.2l0.1-0.2c0.1,0,0.1,0.2,0.1,0.3s-0.9,0.3-1,0.2c0,0,0.1-0.1,0.1-0.2
  c0-0.1,0-0.2,0-0.2C10.9,2.6,10.8,2.4,10.8,2.2z"></path>
  <path d="M12.9,2.9c-0.6,0-0.6-1.3,0-1.2C13.2,1.8,13.4,2.8,12.9,2.9z M12.9,2.9c0.8-0.1,0.8-1.3,0-1.3C12,1.5,11.9,3,12.9,2.9z"></path>
  <path d="M14.8,1.9c0,0.2-0.1-0.1-0.2-0.1c-0.1-0.1-0.3-0.1-0.3,0.1c-0.1,0.2,0.3,0.3,0.5,0.4C15,2.6,14.7,3,14.3,2.9
  c-0.2,0-0.5-0.2-0.3-0.4c0.1-0.1,0.1,0.1,0.1,0.2c0.1,0.1,0.2,0.2,0.4,0.1c0.4-0.2-0.1-0.4-0.3-0.5c-0.3-0.2-0.2-0.6,0.1-0.7
  c0.1,0,0.4-0.1,0.5,0C14.8,1.7,14.8,1.8,14.8,1.9z"></path>
  <path d="M16.8,2.4c0,0.2,0.1,0.5-0.1,0.4C16.4,2.7,16.7,2.5,16.8,2.4z M16.5,2.6c-0.1,0.1-0.1,0.2-0.2,0.2C16.2,2.9,16.2,3,16.1,3
  H16l0.4,0.2c0.1-0.1-0.1-0.1-0.1-0.2c0-0.3,0.4-0.2,0.5,0c0,0.1,0,0.2,0,0.3h-0.1c0,0.1,0.1,0.1,0.2,0.1s0.4,0.2,0.4,0l-0.1-0.1
  V3.2c0-0.2,0-0.5,0-0.7s0-0.5-0.2-0.3C16.8,2.3,16.6,2.5,16.5,2.6z"></path>
  <path d="M18.9,3.2C19,3,18.7,2.8,19.1,2.9c0,0,0.3,0.1,0.2,0.1c0,0-0.2,0-0.2,0.1C19,3.2,19,3.4,18.9,3.4c-0.1,0.2-0.2,0.3-0.3,0.5
  C18.5,4,18.5,4.1,18.4,4c0-0.1,0-0.2-0.1-0.3c-0.1-0.3-0.1-0.6-0.2-0.9c0.1,0.2,0,0.3-0.1,0.5c0,0.1-0.1,0.1-0.1,0.2
  c0,0.1-0.1,0.1,0,0.2L18,3.8l-0.4-0.1c-0.1-0.1,0.1,0,0.1-0.1C17.8,3.5,18,3.2,18,3c0-0.1,0.1-0.2,0.1-0.2l0.1-0.1l-0.1-0.1
  c0-0.1,0.3,0,0.4,0.1s0.1,0.3,0.1,0.4c0,0.2,0.1,0.4,0.1,0.5L18.9,3.2z"></path>
  <path d="M19.9,4.6C20,4.6,20,4.5,20,4.4l-0.1-0.1c0-0.1,0.2,0.1,0.2,0.1c0.1,0,0.2,0.1,0.3,0.2c0.1,0.2,0,0-0.1,0.1
  s-0.1,0.1-0.2,0.2C20,5,19.9,5,19.7,4.9c-0.4-0.2-0.6-0.7-0.3-1.1c0.3-0.3,0.7-0.3,1-0.1c0.1,0.1,0.3,0.2,0.2,0.3
  c-0.2,0.3-0.1-0.1-0.1-0.2c-0.2-0.5-0.8,0.1-0.9,0.3c-0.1,0.1-0.1,0.3,0,0.4C19.8,4.9,19.8,4.8,19.9,4.6z"></path>
  <path d="M21.3,5.1c-0.2,0.2,0.3,0.2,0.3,0.2s-0.3,0.4-0.3,0.3c-0.1,0,0.1-0.3-0.1-0.3c-0.1,0-0.2,0.1-0.3,0.2
  c-0.1,0.1-0.1,0.2,0,0.3c0.1,0.1,0.2,0,0.3,0.1c0.1,0,0.1,0,0,0.1C21,6.1,21,6,20.8,5.8c-0.1-0.1-0.5-0.4-0.5-0.5c0,0,0.1,0,0.2,0
  s0.1-0.1,0.1-0.1c0.2,0,0.3-0.2,0.4-0.3s0.1-0.1,0.2-0.2c0.1,0,0.1-0.1,0.1-0.1s0-0.1-0.1-0.1c0.1-0.1,0.1,0,0.1,0
  C21.5,4.6,22,5,22,5.1s-0.2,0.2-0.2,0.1s0.1-0.4-0.2-0.4C21.5,4.8,21.3,5,21.3,5.1z"></path>
  <path d="M22.3,5.9c0.1-0.1,0.1-0.1,0.1-0.1s-0.1-0.1,0-0.1s0.2,0.2,0.3,0.3c0.3,0.3,0.1,0.1-0.2,0.3c-0.2,0.1-0.3,0.2-0.5,0.4
  c-0.2,0.1-0.4,0.3,0,0.4c0.1,0,0.3,0,0.3,0c0-0.1-0.3,0-0.3,0c-0.1,0-0.6-0.7-0.6-0.8c0,0,0.1,0.1,0.1,0c0.1,0,0.1,0,0.2-0.1
  l0.1-0.1C22,6.1,22.1,6,22.3,5.9z"></path>
  <path d="M23.1,7.4c-0.1,0.1-0.1,0.1,0,0.2s0.1,0,0.2,0.1h0.1l-0.2,0.1c-0.4,0.2,0-0.1-0.2-0.3c-0.2-0.1-0.5,0.2-0.4,0.4
  S22.9,8,23,8.1s-0.1,0.1-0.2,0.1c-0.2,0-0.1,0-0.2-0.2s-0.3-0.4-0.4-0.6s0,0,0.2,0c0.1,0,0.2-0.1,0.2-0.1C22.8,7.2,23,7.2,23.1,7
  c0.1,0,0.1-0.1,0.1-0.1V6.8c0.1-0.1,0.3,0.4,0.3,0.4c0,0.1,0.2,0.3,0.2,0.3c0,0.1-0.1,0.1-0.1,0.1l-0.1,0.1c-0.1,0,0-0.1,0-0.1
  c0-0.1,0.1-0.3-0.1-0.4C23.4,7.2,23.2,7.4,23.1,7.4z"></path>
  <path d="M24.2,9c-0.2,0.1,0-0.1,0-0.2c0.1-0.1,0-0.3-0.1-0.3c-0.3,0-0.1,0.4-0.2,0.6c-0.1,0.3-0.6,0.3-0.8,0.1
  C23,9,22.9,8.6,23.2,8.6c0.1,0,0.1,0,0.1,0.1c-0.1,0.1-0.2,0.2-0.1,0.4c0.1,0.1,0.3,0.1,0.4-0.1c0.1-0.1,0-0.3,0-0.4
  c0.1-0.4,0.4-0.4,0.7-0.2c0.1,0.1,0.2,0.3,0.1,0.4C24.4,8.9,24.2,8.9,24.2,9z"></path>
</g>
<g>
  <path fill="#31968F" d="M22.2,12.9L22.2,12.9c0-0.2-0.3-0.5-0.5-0.7s-0.3-0.3-0.4-0.4c-0.3-0.5,0.1-1.5,0.3-1.9
  c0.1-0.2,0.2-0.2,0.2-0.2l0,0c0.1,0,0,0.1-0.1,0.6c-0.1,0.2-0.2,0.5-0.2,0.6c-0.1,0.5,0,0.6,0.1,0.7l0,0l0,0l0,0
  c0.1-0.1,0.2-0.2,0.4-0.2l0,0c0.3,0,0.5,0.3,0.5,0.7C22.6,12.5,22.4,12.9,22.2,12.9L22.2,12.9L22.2,12.9z"></path>
  <path d="M21.9,9.8L21.9,9.8c0.1,0-0.3,0.8-0.4,1.1c-0.1,0.5,0,0.6,0.1,0.8c0,0,0,0,0.1,0l0,0c0.1-0.1,0.2-0.2,0.4-0.2l0,0
  c0.7,0.1,0.3,1.3,0.1,1.3c0-0.3-0.7-0.8-0.9-1.1C21,11.2,21.7,9.8,21.9,9.8 M21.9,9.7c-0.1,0-0.1,0-0.3,0.2
  c-0.2,0.4-0.6,1.4-0.3,1.9c0.1,0.1,0.2,0.3,0.4,0.4c0.2,0.2,0.5,0.4,0.5,0.6V13h0.1c0.2,0,0.4-0.5,0.4-0.8c0-0.4-0.2-0.7-0.5-0.7
  l0,0l0,0l0,0c-0.2,0-0.3,0.1-0.4,0.2l0,0l0,0c-0.1-0.1-0.1-0.2-0.1-0.7c0-0.1,0.1-0.4,0.2-0.6C22,10,22,9.8,21.9,9.7L21.9,9.7
  L21.9,9.7L21.9,9.7L21.9,9.7z"></path>
</g>
<g>
  <path fill="#31968F" d="M4.6,16.6c-0.1-0.4,0.1-1,0.2-1.3l0,0c-0.1,0-0.3-0.1-0.3-0.3s0-0.3,0.2-0.4c0.1,0,0.2,0,0.2-0.1
  s0-0.2,0-0.3H4.8c-0.1,0-0.2-0.1-0.3-0.3c0-0.2,0-0.4,0.2-0.6c0-0.2-0.1-0.7,0.1-0.8l0,0l0,0c0.3,0.1,0.4,0.3,0.4,0.4
  c0,0.2-0.1,0.4-0.3,0.6c0,0.1,0.1,0.3,0.1,0.3l0,0c0.1,0.1,0.3,0.3,0.3,0.5c0,0.1,0,0.2-0.1,0.3c0,0.1-0.1,0.1-0.2,0.2
  c0.1,0.3,0.2,0.6,0,1.1V16l-0.1-0.1c0,0-0.1-0.1-0.1-0.2C5,16.1,4.8,16.6,4.6,16.6v0.1V16.6z"></path>
  <path d="M4.9,12.7c0.5,0.1,0.4,0.7,0.1,0.8c0,0.1,0.1,0.3,0.2,0.4l0,0c0,0,0.2,0.3,0.3,0.4c0,0.2-0.1,0.3-0.3,0.4
  c0.1,0.4,0.2,0.7,0.1,1.1c-0.2,0-0.3-0.2-0.3-0.3c0,0.4-0.3,1.1-0.3,1.1C4.5,16.1,5,15.2,5,15.2l0,0c0,0.1-0.1,0.1-0.2,0.1
  c-0.2,0-0.4-0.4-0.1-0.6c0.1-0.1,0.3,0,0.3,0c-0.1-0.1-0.1-0.3,0-0.4c-0.1,0.1-0.1,0.1-0.2,0.1c-0.2,0-0.4-0.6,0-0.8
  C4.8,13.5,4.6,12.9,4.9,12.7 M4.8,12.6L4.8,12.6c-0.3,0.2-0.2,0.6-0.1,0.9c-0.2,0.2-0.3,0.4-0.2,0.6c0,0.2,0.2,0.3,0.3,0.3l0,0
  c0,0,0,0.1,0,0.2c-0.1,0-0.1,0-0.2,0.1c-0.2,0.1-0.3,0.3-0.2,0.4c0,0.2,0.2,0.3,0.3,0.3c-0.1,0.3-0.3,0.9-0.2,1.3l0.1,0.2l0.1-0.2
  c0,0,0.2-0.4,0.3-0.8c0,0,0,0,0,0.1l0.1,0.2L5.2,16c0.1-0.4,0.1-0.7,0-1.1c0.1,0,0.1-0.1,0.2-0.2c0.1-0.1,0.1-0.2,0.1-0.3l0,0l0,0
  c0-0.1-0.1-0.2-0.2-0.3S5.2,14,5.2,13.9c0,0-0.1-0.2-0.1-0.3c0.2-0.1,0.3-0.4,0.3-0.6C5.3,12.9,5.2,12.7,4.8,12.6L4.8,12.6
  L4.8,12.6z"></path>
</g>
<g>
  <path fill="#7C463C" d="M16.1,10.7c-0.1,0-0.1,0-0.1,0l0,0c0,0-0.1,0-0.2,0l0,0l0,0c0,0,0,0-0.1-0.1l0,0l0,0l0,0c0-0.1,0-0.1,0-0.2
  l0,0l0,0l0,0c0,0,0.1,0,0.1-0.1c0.1,0,0.1-0.1,0.2-0.1c0,0,0-0.1,0.1-0.1c0-0.1,0.1-0.2,0.1-0.2c-0.1,0-0.2,0-0.3,0h-0.1h-0.1
  c-0.1,0-0.1,0.1-0.2,0.1l0,0c-0.1,0-0.2,0-0.3-0.1s0-0.3,0.2-0.5C15.5,9,15.7,8.8,16,8.7c0.1,0,0.2-0.1,0.3-0.2
  c0.2-0.1,0.3-0.2,0.5-0.3l0,0l0,0c0,0,0,0,0.2,0c0.3,0,0.7,0.1,0.9,0.1c0.1,0,0.1,0,0.2,0c0.2,0,0.5,0,0.6,0.2l0.1,0.1
  c0,0.1,0.1,0.1,0.1,0.2C19,9,19,9,19,9c0.1,0.1,0.2,0.1,0.2,0.3c0,0.1,0,0.1,0,0.1c0,0.1,0,0.1,0.1,0.2l0.1,0.1
  c0.1,0.1,0.1,0.1,0.2,0.2c0,0.1,0,0.5-0.1,0.6s-0.2,0.1-0.3,0.1c-0.2,0-0.2,0-0.3-0.1c0-0.1,0-0.1,0-0.2l0.1-0.1
  c-0.1,0-0.1,0-0.2,0c0,0-0.1,0-0.2-0.1h-0.1l0,0l0,0c-0.1,0-0.1,0.1-0.2,0.2c0,0.1,0,0.2-0.1,0.3s-0.2,0.1-0.3,0.1
  c-0.1,0-0.1,0-0.2,0s-0.1-0.1-0.2-0.1s0-0.1,0.1-0.2l0.1-0.1c0-0.1,0-0.2,0-0.3s-0.1-0.1-0.1-0.2l0,0h-0.1c-0.1,0.1-0.1,0.2,0,0.3
  v0.1c0,0.1,0,0.2,0,0.3s-0.1,0.1-0.2,0.1c0,0-0.1,0-0.2,0s-0.2,0-0.3-0.1v-0.1c0-0.1,0.1-0.1,0.1-0.1s0,0,0.1,0
  c0-0.1,0-0.3-0.1-0.3c-0.2,0.1-0.4,0.2-0.5,0.4v0.1c0,0.1,0,0.2-0.1,0.2C16.3,10.7,16.2,10.7,16.1,10.7z"></path>
  <path d="M16.8,8.3c0,0,0.8,0.1,1.2,0.2c0.3,0,0.6,0,0.7,0.2c0.1,0.1,0.1,0.2,0.2,0.3s0.2,0.1,0.3,0.3c0,0.2,0,0.3,0.1,0.4
  c0.1,0.1,0.2,0.1,0.3,0.3c0,0.1,0,0.5-0.1,0.5c-0.1,0.1-0.1,0.1-0.3,0.1c-0.4,0-0.1-0.2-0.1-0.4c-0.1,0-0.2,0-0.2,0l-0.1-0.1h-0.1
  c0,0,0,0-0.1,0l0,0c-0.3,0-0.2,0.3-0.3,0.5c-0.1,0.1-0.2,0.1-0.3,0.1c-0.1,0-0.1,0-0.1,0c-0.3-0.1,0-0.2,0.1-0.3s0-0.5-0.2-0.6
  c0,0,0,0-0.1,0c-0.2,0-0.2,0.3-0.2,0.4c0,0.2,0.2,0.4-0.1,0.4c0,0-0.1,0-0.2,0s-0.3,0-0.3-0.1s0.1-0.1,0.2-0.1
  c0.1-0.1,0-0.3-0.1-0.4c-0.2,0.1-0.4,0.3-0.5,0.4c-0.1,0.1,0,0.2-0.2,0.3c-0.1,0-0.1,0-0.2,0s-0.1,0-0.1,0c-0.1,0-0.1,0-0.2,0
  c0,0,0,0,0-0.1l0,0v-0.1l0,0c0.1-0.1,0.2-0.1,0.3-0.2l0.2-0.4c0,0-0.2-0.1-0.4-0.1h-0.1c-0.1,0-0.2,0.1-0.3,0.1l0,0
  c-0.4,0-0.2-0.4-0.1-0.6C15.6,9,15.7,8.9,16,8.8C16.2,8.7,16.5,8.3,16.8,8.3L16.8,8.3 M16.8,8.3L16.8,8.3L16.8,8.3
  c-0.3,0-0.4,0.2-0.6,0.3C16.1,8.7,16,8.7,16,8.8c-0.3,0.1-0.4,0.3-0.6,0.5c-0.2,0.3-0.2,0.5-0.2,0.6s0.2,0.1,0.3,0.1l0,0
  c0.1,0,0.2,0,0.2-0.1h0.1c0,0,0,0,0.1,0s0.1,0,0.2,0c0,0,0,0.1-0.1,0.2l-0.1,0.1l0,0l-0.1,0.1c0,0-0.1,0-0.1,0.1l0,0l0,0l0,0
  c-0.1,0.1-0.1,0.2,0,0.2l0,0l0,0l0,0c0,0,0,0.1,0.1,0.1l0,0l0,0c0.1,0,0.1,0,0.2,0l0,0h0.1c0.1,0,0.2,0,0.3,0
  c0.1-0.1,0.1-0.2,0.2-0.2v-0.1c0.1-0.1,0.3-0.3,0.4-0.3c0.1,0.2,0.1,0.2,0,0.3l0,0l0,0c0,0-0.1,0.1-0.1,0.2c0,0.1,0,0.1,0,0.2
  c0.1,0.1,0.2,0.1,0.3,0.1c0.1,0,0.1,0,0.2,0s0.2-0.1,0.2-0.1c0,0.1,0.1,0.1,0.2,0.1c0,0,0.1,0,0.2,0s0.3,0,0.4-0.1s0.1-0.2,0.1-0.3
  c0-0.2,0.1-0.2,0.1-0.2h0.1l0,0c0,0,0,0,0.1,0c0.1,0.1,0.1,0.1,0.2,0.1h0.1c0,0,0,0,0,0.1S19,10.7,19,10.7c0,0.1,0.2,0.1,0.3,0.1
  l0,0c0.1,0,0.3,0,0.3-0.2c0-0.1,0.1-0.5,0.1-0.6s-0.1-0.2-0.2-0.2l-0.1-0.1c-0.1-0.1-0.1-0.1-0.1-0.2c0,0,0-0.1,0-0.2
  c0-0.2-0.1-0.2-0.2-0.3c0,0-0.1,0-0.1-0.1c-0.1,0-0.1-0.1-0.1-0.2c0,0,0-0.1-0.1-0.1c-0.2-0.2-0.4-0.2-0.6-0.2c-0.1,0-0.1,0-0.2,0
  c-0.3,0-0.7-0.1-0.9-0.1C16.8,8.3,16.8,8.3,16.8,8.3L16.8,8.3z M17.6,10.4v-0.1v-0.1c0-0.1,0-0.2,0-0.3l0,0l0,0l0.1,0.1
  c0,0.1,0,0.2,0,0.3C17.8,10.3,17.7,10.3,17.6,10.4C17.7,10.4,17.6,10.4,17.6,10.4L17.6,10.4z"></path>
</g>
<g>
  <circle fill="#CF5D57" cx="15" cy="8.4" r="0.4"></circle>
  <path d="M15,8.1c0.2,0,0.3,0.1,0.3,0.3S15.2,8.7,15,8.7s-0.3-0.1-0.3-0.3S14.9,8.1,15,8.1 M15,8c-0.2,0-0.4,0.2-0.4,0.4
  s0.2,0.4,0.4,0.4s0.4-0.2,0.4-0.4S15.3,8,15,8L15,8z"></path>
</g>
<circle fill="#FFFFFC" cx="7.5" cy="7.4" r="0.2"></circle>
<g>
  <path fill="#299790" d="M11.6,6C11.6,6,11.5,6,11.6,6L11.6,6L11.6,6L11.6,6c0-0.2,0.2-0.3,0.1-0.5c0,0,0-0.1-0.1-0.1
  s-0.2-0.1-0.2-0.1c0-0.1,0.1-0.1,0.2-0.3l0,0c0,0-0.1-0.1-0.1-0.2s0-0.2,0-0.3c-0.4,0.2-1,0.4-1.1,0.4l0,0l0,0l0,0
  c0-0.1,0-0.1,1.3-0.6h0.1c0.1,0,0.2-0.1,0.3-0.1s0.3,0,0.4,0.2c0.1,0,0.2-0.1,0.3-0.1s0.2,0,0.3,0.1s0.1,0.2,0.1,0.3
  C13,4.9,12.9,5,12.8,5c-0.1,0-0.2,0.1-0.2,0.1c0,0.1,0,0.1-0.1,0.2c0,0.1,0,0.1-0.1,0.2l-0.1,0.1l0,0h-0.1h-0.1l0,0
  c-0.1,0-0.1,0.1-0.2,0.1C11.8,5.9,11.7,6,11.6,6z"></path>
  <path d="M12,4.3c0.2,0,0.3,0.1,0.4,0.2c0.1,0,0.2-0.1,0.3-0.1s0.2,0,0.3,0.1c0,0.1,0,0.2,0,0.2c0,0.2-0.4,0.2-0.5,0.4
  c-0.1,0.1,0,0.3-0.1,0.4l-0.1,0.1c-0.1,0-0.1,0-0.2,0c0,0,0,0-0.1,0s-0.1,0.1-0.2,0.2C11.7,5.9,11.6,6,11.5,6l0,0l0,0
  c0,0,0.4-0.4,0.1-0.5c-0.1,0-0.1,0-0.2-0.1c0-0.1,0.1-0.2,0.2-0.2c0,0,0,0,0-0.1c0,0-0.1-0.1-0.1-0.2s0-0.3,0-0.3l0,0
  c-0.2,0.1-1,0.4-1,0.4l0,0l1.3-0.6C11.8,4.3,11.9,4.3,12,4.3 M12,4.2L12,4.2L12,4.2c-0.1,0-0.2,0-0.3,0.1c0,0,0,0-0.1,0
  c-0.1,0.1-0.4,0.2-0.7,0.3c-0.2,0.1-0.3,0.1-0.4,0.2c-0.1,0-0.1,0-0.1,0.1L10.3,5v0.1h0.1l0,0c0.1,0,0.7-0.2,1.1-0.4
  c0,0.1,0,0.2,0,0.2c0,0.1,0.1,0.1,0.1,0.2c-0.1,0.1-0.2,0.2-0.2,0.3c0,0.1,0.1,0.1,0.2,0.2l0,0c0,0.1-0.1,0.2-0.2,0.3l0,0V6l0,0
  l0,0h0.1c0.1,0,0.2-0.1,0.3-0.3c0.2,0,0.2,0,0.3-0.1l0,0c0,0,0,0,0.1,0h0.1c0.1,0,0.1,0,0.2-0.1c0.1-0.1,0.1-0.2,0.1-0.2
  c0-0.1,0-0.1,0-0.2c0,0,0.1-0.1,0.2-0.1c0.1-0.1,0.3-0.1,0.3-0.3c0.1-0.1,0-0.3-0.1-0.4s-0.2-0.1-0.3-0.1s-0.2,0-0.2,0
  C12.3,4.3,12.1,4.2,12,4.2L12,4.2z"></path>
</g>
<circle fill="#FFFFFC" cx="7" cy="8" r="0.2"></circle>
<circle fill="#FFFFFC" cx="7.9" cy="8" r="0.2"></circle>
<circle fill="#FFFFFC" cx="8.8" cy="8" r="0.2"></circle>
<circle fill="#FFFFFC" cx="9.7" cy="8" r="0.2"></circle>
<circle fill="#FFFFFC" cx="10.6" cy="8" r="0.2"></circle>
<circle fill="#FFFFFC" cx="11.4" cy="8" r="0.2"></circle>
<circle fill="#FFFFFC" cx="12.3" cy="8" r="0.2"></circle>
<circle fill="#FFFFFC" cx="8.4" cy="7.4" r="0.2"></circle>
<circle fill="#FFFFFC" cx="9.3" cy="7.4" r="0.2"></circle>
<circle fill="#FFFFFC" cx="10.1" cy="7.4" r="0.2"></circle>
<circle fill="#FFFFFC" cx="11" cy="7.4" r="0.2"></circle>
<circle fill="#FFFFFC" cx="11.9" cy="7.4" r="0.2"></circle>
<g>
  <path fill="#29928B" d="M21.3,16.3c0,0,0-1,0.1-1.5c-0.1,0-0.2,0.1-0.3,0.1H21v-0.1c0,0,0-0.5,0.3-0.5c0.1,0,0.2,0,0.2,0.1l0,0h0.1
  h0.1l0,0c0.1,0,0.4,0.2,0.4,0.2l0,0l0,0c0,0-0.1,0.2-0.3,0.2l0,0c-0.1,0-0.1,0-0.2,0c0,0.3-0.1,0.8-0.2,0.9
  C21.7,15.8,21.4,16.3,21.3,16.3v0.1V16.3z"></path>
  <path d="M21.4,14.3c0.1,0,0.1,0,0.2,0.1c0,0,0,0,0.1,0s0.2-0.1,0.3-0.1l0,0c0.1,0,0.4,0.2,0.4,0.2s-0.1,0.1-0.3,0.1
  c-0.1,0-0.1,0-0.2-0.1c0,0.3-0.1,0.8-0.2,1s-0.4,0.7-0.4,0.7s0-1,0.1-1.6c-0.1,0.1-0.3,0.1-0.3,0.1S21.2,14.3,21.4,14.3 M21.4,14.2
  c-0.3,0-0.3,0.5-0.4,0.5v0.1h0.1c0,0,0.1,0,0.2,0c-0.1,0.6-0.1,1.4-0.1,1.5v0.3l0.2-0.3c0-0.1,0.3-0.5,0.4-0.7
  c0-0.1,0.2-0.5,0.2-0.8h0.1c0.2,0,0.3-0.2,0.3-0.2l0.1-0.1l-0.1-0.1c0,0-0.3-0.2-0.4-0.2l0,0c-0.1,0-0.1,0-0.2,0h-0.1
  C21.6,14.3,21.5,14.2,21.4,14.2L21.4,14.2L21.4,14.2z"></path>
</g>
<g>
  <path fill="#E9DA74" d="M21.8,14.3c-0.3,0-0.6-0.2-0.6-0.5c0-0.2,0-0.5,0.3-0.7c-0.2-0.1-0.3-0.2-0.3-0.5c0-0.2,0.1-0.5,0.3-0.7
  l0,0l0,0l0.1,0.1c0.3,0.3,0.7,0.6,0.6,0.8l0,0l0,0c0,0.1-0.1,0.1-0.2,0.2c0.3,0.1,0.4,0.4,0.4,0.7C22.3,14,22.1,14.3,21.8,14.3z"></path>
  <path d="M21.4,12.1c0.1,0.1,0.8,0.6,0.7,0.8c-0.1,0.1-0.2,0.2-0.3,0.2c0.7,0.1,0.6,1.2-0.1,1.2s-0.8-1-0.2-1.1
  C21,13,21,12.3,21.4,12.1 M21.4,11.9L21.4,11.9c-0.3,0.2-0.4,0.4-0.4,0.7c0,0.2,0.1,0.4,0.3,0.5c-0.2,0.2-0.3,0.4-0.2,0.7
  c0.1,0.3,0.3,0.6,0.7,0.6c0.4,0,0.6-0.3,0.7-0.6c0-0.3-0.1-0.5-0.3-0.7c0.1,0,0.1-0.1,0.1-0.2l0,0l0,0c0-0.2-0.3-0.4-0.7-0.8
  C21.5,12,21.5,12,21.4,11.9L21.4,11.9L21.4,11.9z"></path>
</g>
<g>
  <path fill="#299790" d="M15.6,6.2c-0.2,0-0.2-0.1-0.3-0.2l-0.1-0.1c-0.1,0-0.2,0-0.3,0s-0.1,0-0.1,0c-0.1,0-0.1-0.1-0.1-0.1
  c0-0.1,0-0.1,0.1-0.2V5.5l-0.1-0.1c-0.2-0.2-0.2-0.3-0.2-0.3c0-0.1,0.1-0.3,0.2-0.3c-0.1,0-0.3,0-0.4,0c-0.4,0-0.7,0-0.8-0.2l0,0
  l0,0l0,0c0,0,2.2,0,2.4,0.2L16,4.9c0,0.1-0.1,0.4-0.2,0.5c0,0,0,0.1,0.1,0.1C16,5.6,16.1,5.7,16,5.8c0,0-0.1,0.1-0.2,0.1
  c0,0,0,0-0.1,0c0,0,0,0,0,0.1C15.6,6,15.6,6,15.6,6.2L15.6,6.2L15.6,6.2z"></path>
  <path d="M13.5,4.6c0.1,0,2.2,0.1,2.3,0.2l0.1,0.1c0,0.1-0.1,0.4-0.2,0.5c0,0.1,0.3,0.3,0.2,0.4c0,0-0.2,0.1-0.3,0.1
  c-0.1,0.1,0,0.2,0,0.3c-0.2,0-0.3-0.2-0.4-0.3c0,0-0.2,0-0.3,0h-0.1c-0.1,0-0.1-0.1-0.1-0.1c0-0.1,0.1-0.2,0.1-0.2l-0.4-0.4
  c0-0.2,0.3-0.3,0.3-0.3C14.5,4.7,13.5,4.7,13.5,4.6C13.4,4.6,13.4,4.6,13.5,4.6 M13.5,4.5C13.4,4.5,13.4,4.5,13.5,4.5l-0.1,0.1l0,0
  c0.1,0.2,0.4,0.2,0.8,0.2c0.1,0,0.2,0,0.3,0c-0.1,0.1-0.2,0.2-0.1,0.3c0,0,0,0.1,0.2,0.3l0.1,0.1l0,0c0,0.1-0.1,0.1-0.1,0.2
  s0,0.1,0.1,0.2h0.1c0.1,0,0.2,0,0.3,0L15.2,6c0.1,0.1,0.2,0.2,0.3,0.2h0.1V6.1c0-0.1,0-0.2,0-0.2l0,0l0,0c0.1,0,0.2-0.1,0.2-0.1
  c0.1-0.1,0-0.2-0.1-0.4c0,0,0,0,0-0.1C15.9,5.2,16,5,15.9,4.8c0,0,0-0.1-0.1-0.2c0,0-0.1-0.1-1.2-0.1C14.1,4.5,13.5,4.5,13.5,4.5
  L13.5,4.5z"></path>
</g>
<g>
  <path fill="#324968" d="M13.8,6.3c-0.1,0-0.2-0.1-0.2-0.1c-0.1,0.1-0.1,0.1-0.2,0.1h-0.1c-0.1,0-0.2-0.1-0.1-0.2
  c0-0.1,0.1-0.1,0.1-0.2c0,0-0.1,0-0.1-0.1c-0.1,0.1-0.1,0.1-0.2,0.1l0,0l0,0c-0.1,0-0.2-0.1-0.2-0.2s0-0.1,0-0.2
  c-0.1,0-0.1-0.1-0.1-0.2s0-0.2,0.2-0.3c0,0.1,0.1,0,0.1,0c0-0.1,0-0.1,0.1-0.1l0.1-0.1c0,0,0-0.1,0.1-0.1l0,0l0,0l0,0h0.1l0,0h0.1
  c0.1,0,0.1,0.1,0.2,0.1l0,0l0,0c0.1,0,0.2,0.1,0.3,0.2l0,0l0,0c0.1,0,0.1,0,0.1,0.1c0,0,0.1,0.1,0.1,0.2S14.1,5.5,14,5.5
  c0,0,0.1,0.1,0.1,0.2s0,0.1-0.1,0.2L13.9,6c0,0,0,0,0,0.1S13.9,6.3,13.8,6.3C13.9,6.3,13.9,6.3,13.8,6.3z"></path>
  <path d="M13.3,4.7C13.4,4.7,13.4,4.7,13.3,4.7c0.1,0,0.1,0,0.1,0h0.1c0.1,0,0.1,0.1,0.2,0.1l0,0l0,0c0.1,0,0.2,0.1,0.2,0.2l0,0l0,0
  l0,0c0.1,0,0.2,0.1,0.2,0.2S14,5.4,13.9,5.4c0,0,0,0-0.1,0s0,0-0.1,0c0.1,0,0.1,0.1,0.1,0.2s-0.1,0.2-0.2,0.2c0,0,0,0-0.1,0l0,0
  l0.1,0.1c0,0.1,0,0.2,0,0.2h-0.1c-0.1,0-0.2-0.1-0.2-0.2l0,0c0,0.1-0.1,0.2-0.2,0.2c0,0,0,0-0.1,0S12.9,6,12.9,5.9s0.1-0.1,0.2-0.2
  c-0.1,0-0.1,0-0.2-0.1c0,0,0,0,0-0.1c-0.1,0.1-0.1,0.1-0.2,0.2l0,0l0,0c-0.1,0-0.1-0.1-0.1-0.1c0-0.1,0-0.1,0.1-0.2
  c-0.1,0-0.1-0.1-0.2-0.2c0-0.1,0-0.2,0.1-0.3c0.1,0,0.1-0.1,0.2-0.1l0,0l0,0l0,0c0-0.1,0-0.1,0.1-0.1L13,4.6
  C13.2,4.8,13.3,4.7,13.3,4.7L13.3,4.7 M13.3,4.6L13.3,4.6L13.3,4.6L13.3,4.6c-0.1,0-0.2,0.1-0.2,0.1S13,4.7,13,4.8
  c0,0.1,0,0.1,0,0.2c-0.1,0-0.1,0-0.2,0.1c-0.1,0.1-0.2,0.2-0.2,0.3c0,0.1,0.1,0.1,0.1,0.2v0.1c0,0.1,0.1,0.2,0.2,0.2l0,0
  c0,0,0,0,0.1,0c0,0,0.1,0,0.2-0.1l0,0c0,0-0.1,0.1-0.1,0.2s0,0.2,0.2,0.3h0.1c0.1,0,0.2,0,0.2-0.1c0.1,0.1,0.1,0.1,0.2,0.1h0.1
  C14,6.3,14,6.2,14,6l0,0c0,0,0.1,0,0.1-0.1c0.1-0.1,0.1-0.1,0.1-0.2V5.6c0.1,0,0.2-0.1,0.2-0.3c0-0.1,0-0.2-0.1-0.2
  C14.3,5,14.2,5,14.1,5l0,0c-0.1-0.1-0.2-0.1-0.3-0.2l0,0c0-0.1-0.1-0.1-0.2-0.1h-0.1l0,0C13.4,4.7,13.4,4.6,13.3,4.6L13.3,4.6z"></path>
</g>
</svg>